# Blender v2.80 (sub 75) OBJ File: ''
# www.blender.org
mtllib test.mtl
o Cube
v 1.557267 2.019614 -0.000000
v 0.894772 1.073474 -1.155024
v 0.894772 1.073474 1.155024
v 0.232278 0.127333 0.000000
v -0.232278 3.272667 -0.000000
v -0.894772 2.326526 -1.155024
v -0.894772 2.326526 1.155024
v -1.557267 1.380386 0.000000
v 0.329742 2.711326 -1.455918
v -1.377939 1.065477 0.228542
v 1.088988 2.714830 -1.017562
v 0.837557 2.355750 -1.455918
v -0.757569 1.951457 1.310124
v 0.495396 1.074121 1.310124
v -0.124974 0.188141 0.228542
v 0.581172 3.070406 -1.017562
v 0.819152 1.126424 -1.414214
v -0.819152 2.273576 -1.414214
v 1.630312 2.284879 -0.000000
v -1.630312 1.115120 0.000000
v -0.819152 2.273576 1.414214
v 0.819152 1.126423 1.414214
v 0.007992 -0.032032 0.000000
v -0.007992 3.432032 -0.000000
v -0.978345 1.961375 -0.932970
v 1.314415 1.918583 0.347050
v -0.244156 3.009906 0.347050
v 0.580226 0.870052 -0.932970
v -1.005208 2.026280 -0.804425
v 1.289205 1.779311 0.309291
v -0.366406 2.938582 0.309291
v 0.650404 0.867008 -0.804425
v -0.185619 3.073651 0.293230
v 0.601767 0.920670 -1.018763
v -0.324728 2.978251 0.284864
v 0.655086 0.893550 -0.860826
v -0.990685 2.028603 -1.115156
v 1.458779 2.039906 0.299058
v -1.034867 2.126450 -0.910776
v 1.417172 1.819538 0.244248
v 0.679550 0.766105 -0.779797
v 0.555634 0.750081 -0.954784
v -0.447499 2.965298 0.375228
v -0.271510 3.055690 0.459430
v 1.342045 1.712246 0.375228
v 1.366794 1.908537 0.459429
v -1.109994 2.019158 -0.779796
v -1.082670 1.897234 -0.954784
v -0.179525 3.187059 0.299058
v 1.354295 1.995392 0.293230
v 0.647619 0.881450 -1.115156
v -0.938147 1.998929 -1.018763
v 1.312227 1.832043 0.284863
v 0.754677 0.873397 -0.910776
v -0.372373 3.072591 0.244248
v -0.981868 2.039757 -0.860826
v 0.757569 1.448543 -1.310124
v -0.495396 2.325879 -1.310124
v 1.377939 2.334523 -0.228542
v 0.124974 3.211859 -0.228542
v 0.699567 1.610220 -1.210955
v -0.323631 2.326671 -1.210955
v 1.206174 2.333731 -0.327712
v 0.182976 3.050182 -0.327712
v -0.123980 2.484282 -1.351138
v 0.779387 1.851737 -1.351138
v 1.226664 2.490515 -0.571335
v 0.323297 3.123060 -0.571335
v -0.085221 2.492838 -1.342417
v 0.340283 3.100519 -0.600574
v 0.802828 1.888533 -1.392031
v 1.248561 2.525105 -0.614920
v 0.285082 3.152255 -0.505378
v 1.267169 2.464589 -0.505378
v -0.201171 2.457814 -1.353133
v 0.780916 1.770149 -1.353133
v 0.774171 1.891086 -1.342417
v -0.097421 2.518893 -1.392031
v 1.199674 2.498767 -0.600574
v 0.348312 3.155466 -0.614920
vt 0.375000 0.081216
vt 0.625000 0.081216
vt 0.625000 0.250000
vt 0.375000 0.250000
vt 0.404401 0.279401
vt 0.595599 0.279401
vt 0.595599 0.470599
vt 0.404401 0.470599
vt 0.397909 0.683913
vt 0.602091 0.683913
vt 0.602091 0.727091
vt 0.397909 0.727091
vt 0.375000 0.831216
vt 0.625000 0.831216
vt 0.625000 1.000000
vt 0.375000 1.000000
vt 0.147909 0.589241
vt 0.352091 0.589241
vt 0.352091 0.727091
vt 0.147909 0.727091
vt 0.711254 0.586254
vt 0.788746 0.586254
vt 0.788745 0.663745
vt 0.711255 0.663746
vt 0.375000 0.750000
vt 0.375000 0.697133
vt 0.352091 0.522909
vt 0.147909 0.522909
vt 0.125000 0.500000
vt 0.375000 0.500000
vt 0.602091 0.522909
vt 0.397909 0.522909
vt 0.375000 0.500000
vt 0.625000 0.500000
vt 0.375000 0.750000
vt 0.125000 0.750000
vt 0.625000 0.750000
vt 0.352091 0.566087
vt 0.375000 0.552866
vt 0.602091 0.660759
vt 0.625000 0.668784
vt 0.125000 0.581216
vt 0.654401 0.529401
vt 0.654401 0.720599
vt 0.625000 0.750000
vt 0.625000 0.500000
vt 0.845599 0.720599
vt 0.875000 0.750000
vt 0.375000 0.250000
vt 0.625000 0.250000
vt 0.845599 0.529401
vt 0.875000 0.500000
vt 0.146175 0.574092
vt 0.149001 0.581236
vt 0.126092 0.573212
vt 0.123266 0.560871
vt 0.603825 0.675908
vt 0.600999 0.668764
vt 0.623908 0.676789
vt 0.626734 0.689129
vt 0.375000 0.581216
vt 0.397909 0.660759
vt 0.375000 0.668784
vt 0.353825 0.574092
vt 0.350999 0.581236
vt 0.375873 0.810871
vt 0.624127 0.810871
vt 0.625550 0.823211
vt 0.374450 0.823212
vt 0.375873 0.060871
vt 0.624127 0.060871
vt 0.625550 0.073211
vt 0.374450 0.073211
vt 0.375000 0.000000
vt 0.625000 0.000000
vt 0.625000 0.052866
vt 0.375000 0.052866
vt 0.625000 0.802866
vt 0.375000 0.802866
vt 0.147909 0.566087
vt 0.625000 0.697134
vt 0.125000 0.552866
vt 0.376734 0.560871
vt 0.373908 0.573211
vt 0.399001 0.668764
vt 0.396175 0.675908
vt 0.373266 0.689129
vt 0.376092 0.676789
vt 0.671932 0.546932
vt 0.671932 0.703068
vt 0.828068 0.703068
vt 0.828068 0.546932
vt 0.685834 0.560834
vt 0.685835 0.689166
vt 0.814165 0.689165
vt 0.814166 0.560834
vt 0.810887 0.684958
vt 0.810887 0.565042
vt 0.813026 0.562903
vt 0.813026 0.687097
vt 0.690042 0.564113
vt 0.687903 0.561974
vt 0.690042 0.685887
vt 0.687903 0.688026
vt 0.691182 0.683819
vt 0.691181 0.566181
vt 0.808819 0.683818
vt 0.808819 0.566181
vn 0.4056 0.5792 0.7071
vn -0.4056 -0.5792 0.7071
vn -0.8192 0.5736 0.0000
vn -0.4056 -0.5792 -0.7071
vn 0.8192 -0.5736 -0.0000
vn 0.4056 0.5792 -0.7071
vn -0.9140 0.2517 -0.3181
vn 0.9140 -0.2517 -0.3181
vn -0.9140 0.2517 0.3181
vn 0.5491 -0.7728 0.3181
vn -0.5491 0.7728 -0.3181
vn 0.9140 -0.2517 0.3181
vn -0.5491 0.7728 0.3181
vn 0.5491 -0.7728 -0.3181
vn 0.2377 0.3395 -0.9101
vn 0.6669 0.3415 -0.6623
vn -0.6669 -0.3415 0.6623
vn -0.0928 -0.7435 0.6623
vn 0.0928 0.7435 -0.6623
vn -0.2377 -0.3395 0.9101
vn -0.5220 -0.7455 0.4145
vn 0.5220 0.7455 -0.4145
vn 0.8826 -0.4493 -0.1382
vn -0.4859 -0.6939 -0.5314
vn 0.3048 0.4353 0.8471
vn -0.7241 0.6757 -0.1382
vn 0.8422 0.0105 -0.5390
vn -0.2510 0.8338 -0.4917
vn 0.8694 0.0493 -0.4917
vn -0.2782 0.7950 -0.5390
vn 0.8244 0.1023 -0.5567
vn 0.1093 0.1561 -0.9817
vn -0.1859 0.8097 -0.5567
vn 0.5631 0.8041 -0.1906
vn -0.0346 -0.0494 0.9982
vn -0.5725 -0.8177 0.0603
vn 0.1299 -0.8023 0.5827
vn -0.2527 0.1104 0.9612
vn -0.3299 -0.9425 0.0545
vn 0.1902 -0.1997 0.9612
vn -0.7728 -0.6323 0.0545
vn -0.7983 -0.1523 0.5827
vn -0.3584 -0.5118 -0.7808
vn 0.8589 -0.5062 -0.0780
vn -0.7694 0.6340 -0.0780
vn 0.4478 0.6396 0.6248
vn 0.5497 0.7850 -0.2858
vn -0.0327 0.7823 -0.6221
vn 0.7463 0.2368 -0.6220
vn 0.1639 0.2341 -0.9583
vn -0.0899 -0.1284 -0.9876
vn 0.9011 -0.1238 -0.4155
vn -0.4245 0.8045 -0.4155
vn 0.5665 0.8090 0.1567
vn 0.5733 0.8188 -0.0302
vn -0.2661 0.8149 -0.5149
vn 0.8568 0.0286 -0.5149
vn 0.0173 0.0248 -0.9995
vn -0.5510 -0.7869 -0.2778
vn 0.5215 -0.7820 0.3414
vn -0.9132 0.2226 0.3414
vn 0.1593 0.2275 0.9606
usemtl Material
s off
f 46/1/1 44/2/1 21/3/1 22/4/1
f 15/5/2 14/6/2 13/7/2 10/8/2
f 39/9/3 55/10/3 5/11/3 6/12/3
f 48/13/4 42/14/4 23/15/4 20/16/4
f 41/17/5 45/18/5 3/19/5 4/20/5
f 9/21/6 16/22/6 11/23/6 12/24/6
f 39/9/7 6/12/7 18/25/7 37/26/7
f 1/27/8 2/28/8 17/29/8 19/30/8
f 7/31/9 8/32/9 20/33/9 21/34/9
f 4/20/10 3/19/10 22/35/10 23/36/10
f 6/12/11 5/11/11 24/37/11 18/25/11
f 40/38/12 1/27/12 19/30/12 38/39/12
f 43/40/13 7/31/13 21/34/13 44/41/13
f 41/17/14 4/20/14 23/36/14 42/42/14
f 58/43/15 57/44/15 17/45/15 18/46/15
f 57/44/16 59/47/16 19/48/16 17/45/16
f 10/8/17 13/7/17 21/34/17 20/33/17
f 14/6/18 15/5/18 23/49/18 22/50/18
f 60/51/19 58/43/19 18/46/19 24/52/19
f 13/7/20 14/6/20 22/50/20 21/34/20
f 15/5/21 10/8/21 20/33/21 23/49/21
f 59/47/22 60/51/22 24/52/22 19/48/22
f 36/53/14 32/54/14 28/55/14 34/56/14
f 35/57/13 31/58/13 27/59/13 33/60/13
f 3/19/12 45/18/12 46/61/12 22/35/12
f 8/32/7 47/62/7 48/63/7 20/33/7
f 36/53/23 53/64/23 30/65/23 32/54/23
f 52/66/24 34/67/24 28/68/24 25/69/24
f 8/32/3 7/31/3 43/40/3 47/62/3
f 50/70/25 33/71/25 27/72/25 26/73/25
f 19/74/1 24/75/1 49/76/1 38/77/1
f 18/25/4 17/45/4 51/78/4 37/79/4
f 2/28/5 1/27/5 40/38/5 54/80/5
f 5/11/13 55/10/13 49/81/13 24/37/13
f 2/28/14 54/80/14 51/82/14 17/29/14
f 30/65/12 53/64/12 50/83/12 26/84/12
f 29/85/7 56/86/7 52/87/7 25/88/7
f 29/85/26 31/58/26 35/57/26 56/86/26
f 28/55/27 32/54/27 41/17/27 42/42/27
f 27/59/28 31/58/28 43/40/28 44/41/28
f 30/65/29 26/84/29 46/61/29 45/18/29
f 29/85/30 25/88/30 48/63/30 47/62/30
f 32/54/31 30/65/31 45/18/31 41/17/31
f 25/69/32 28/68/32 42/14/32 48/13/32
f 31/58/33 29/85/33 47/62/33 43/40/33
f 26/73/34 27/72/34 44/2/34 46/1/34
f 33/71/35 50/70/35 38/77/35 49/76/35
f 34/67/36 52/66/36 37/79/36 51/78/36
f 53/64/37 36/53/37 54/80/37 40/38/37
f 35/57/38 33/60/38 49/81/38 55/10/38
f 36/53/39 34/56/39 51/82/39 54/80/39
f 50/83/40 53/64/40 40/38/40 38/39/40
f 52/87/41 56/86/41 39/9/41 37/26/41
f 56/86/42 35/57/42 55/10/42 39/9/42
f 62/89/6 61/90/6 57/44/6 58/43/6
f 61/90/6 63/91/6 59/47/6 57/44/6
f 64/92/6 62/89/6 58/43/6 60/51/6
f 63/91/6 64/92/6 60/51/6 59/47/6
f 75/93/43 76/94/43 61/90/43 62/89/43
f 76/94/44 74/95/44 63/91/44 61/90/44
f 73/96/45 75/93/45 62/89/45 64/92/45
f 74/95/46 73/96/46 64/92/46 63/91/46
f 79/97/47 70/98/47 68/99/47 67/100/47
f 70/98/48 69/101/48 65/102/48 68/99/48
f 77/103/49 79/97/49 67/100/49 66/104/49
f 69/101/50 77/103/50 66/104/50 65/102/50
f 9/21/51 12/24/51 71/105/51 78/106/51
f 12/24/52 11/23/52 72/107/52 71/105/52
f 16/22/53 9/21/53 78/106/53 80/108/53
f 11/23/54 16/22/54 80/108/54 72/107/54
f 67/100/55 68/99/55 73/96/55 74/95/55
f 68/99/56 65/102/56 75/93/56 73/96/56
f 66/104/57 67/100/57 74/95/57 76/94/57
f 65/102/58 66/104/58 76/94/58 75/93/58
f 77/103/59 69/101/59 78/106/59 71/105/59
f 79/97/60 77/103/60 71/105/60 72/107/60
f 69/101/61 70/98/61 80/108/61 78/106/61
f 70/98/62 79/97/62 72/107/62 80/108/62
